<mxfile host="app.diagrams.net" modified="2024-04-30T19:11:26.129Z" agent="Mozilla/5.0 (Windows NT 10.0; Win64; x64) AppleWebKit/537.36 (KHTML, like Gecko) Chrome/124.0.0.0 Safari/537.36" etag="oW_4VQXV6Go5OTR84zr8" version="24.3.1" type="google">
  <diagram name="Página-1" id="1XcLsS-EjWNIQn2_MLSF">
    <mxGraphModel grid="1" page="1" gridSize="10" guides="1" tooltips="1" connect="1" arrows="1" fold="1" pageScale="1" pageWidth="827" pageHeight="1169" math="0" shadow="0">
      <root>
        <mxCell id="0" />
        <mxCell id="1" parent="0" />
        <mxCell id="MY-2V0G7_KjS_NjTgL1N-2" value="vikingo" style="swimlane;fontStyle=1;align=center;verticalAlign=top;childLayout=stackLayout;horizontal=1;startSize=26;horizontalStack=0;resizeParent=1;resizeParentMax=0;resizeLast=0;collapsible=1;marginBottom=0;whiteSpace=wrap;html=1;" vertex="1" parent="1">
          <mxGeometry x="-1650" y="220" width="170" height="170" as="geometry" />
        </mxCell>
        <mxCell id="MY-2V0G7_KjS_NjTgL1N-3" value="- curar : int&lt;div&gt;- daño : int&lt;/div&gt;&lt;div&gt;- estaMuerto : bool&lt;/div&gt;&lt;div&gt;- nombre : string&lt;/div&gt;" style="text;strokeColor=none;fillColor=none;align=left;verticalAlign=top;spacingLeft=4;spacingRight=4;overflow=hidden;rotatable=0;points=[[0,0.5],[1,0.5]];portConstraint=eastwest;whiteSpace=wrap;html=1;" vertex="1" parent="MY-2V0G7_KjS_NjTgL1N-2">
          <mxGeometry y="26" width="170" height="64" as="geometry" />
        </mxCell>
        <mxCell id="MY-2V0G7_KjS_NjTgL1N-11" value="" style="line;strokeWidth=2;html=1;" vertex="1" parent="MY-2V0G7_KjS_NjTgL1N-2">
          <mxGeometry y="90" width="170" height="20" as="geometry" />
        </mxCell>
        <mxCell id="MY-2V0G7_KjS_NjTgL1N-5" value="+ fuerza ()&lt;div&gt;+ Resistencia()&lt;/div&gt;&lt;div&gt;+ Agilidad()&lt;/div&gt;" style="text;strokeColor=none;fillColor=none;align=left;verticalAlign=top;spacingLeft=4;spacingRight=4;overflow=hidden;rotatable=0;points=[[0,0.5],[1,0.5]];portConstraint=eastwest;whiteSpace=wrap;html=1;" vertex="1" parent="MY-2V0G7_KjS_NjTgL1N-2">
          <mxGeometry y="110" width="170" height="60" as="geometry" />
        </mxCell>
        <mxCell id="85pcaeQUQCBpe-AEiCe_-4" value="&lt;p style=&quot;margin:0px;margin-top:4px;text-align:center;&quot;&gt;&lt;b&gt;hacha&lt;/b&gt;&lt;/p&gt;&lt;hr size=&quot;1&quot; style=&quot;border-style:solid;&quot;&gt;&lt;p style=&quot;margin:0px;margin-left:4px;&quot;&gt;&lt;/p&gt;&lt;p style=&quot;margin:0px;margin-left:4px;&quot;&gt;- cantidad : int&lt;/p&gt;&lt;p style=&quot;margin:0px;margin-left:4px;&quot;&gt;- nombre : string&lt;/p&gt;&lt;p style=&quot;margin:0px;margin-left:4px;&quot;&gt;- durabilidad : int&lt;/p&gt;&lt;p style=&quot;margin:0px;margin-left:4px;&quot;&gt;&lt;br&gt;&lt;/p&gt;&lt;p style=&quot;margin:0px;margin-left:4px;&quot;&gt;&lt;br&gt;&lt;/p&gt;&lt;p style=&quot;margin:0px;margin-left:4px;&quot;&gt;&lt;br&gt;&lt;/p&gt;&lt;p style=&quot;margin:0px;margin-left:4px;&quot;&gt;+ recolectar()&lt;/p&gt;&lt;p style=&quot;margin:0px;margin-left:4px;&quot;&gt;+ comercializar()&lt;/p&gt;&lt;p style=&quot;margin:0px;margin-left:4px;&quot;&gt;+ tirar()&lt;/p&gt;&lt;p style=&quot;margin:0px;margin-left:4px;&quot;&gt;+ usar()&lt;/p&gt;" style="verticalAlign=top;align=left;overflow=fill;html=1;whiteSpace=wrap;" vertex="1" parent="1">
          <mxGeometry x="-1460" y="220" width="190" height="180" as="geometry" />
        </mxCell>
        <mxCell id="85pcaeQUQCBpe-AEiCe_-14" value="" style="endArrow=none;html=1;rounded=0;" edge="1" parent="1" target="85pcaeQUQCBpe-AEiCe_-4">
          <mxGeometry relative="1" as="geometry">
            <mxPoint x="-1460" y="320" as="sourcePoint" />
            <mxPoint x="-1300" y="320" as="targetPoint" />
            <Array as="points">
              <mxPoint x="-1270" y="320" />
            </Array>
          </mxGeometry>
        </mxCell>
        <mxCell id="hJ_lRGSjpZqS62ds-ANR-2" style="edgeStyle=orthogonalEdgeStyle;rounded=0;orthogonalLoop=1;jettySize=auto;html=1;entryX=0.5;entryY=0;entryDx=0;entryDy=0;" edge="1" parent="1" source="hJ_lRGSjpZqS62ds-ANR-1" target="hJ_lRGSjpZqS62ds-ANR-3">
          <mxGeometry relative="1" as="geometry">
            <mxPoint x="-970" y="160" as="targetPoint" />
          </mxGeometry>
        </mxCell>
        <mxCell id="hJ_lRGSjpZqS62ds-ANR-1" value="ax damage" style="ellipse;whiteSpace=wrap;html=1;" vertex="1" parent="1">
          <mxGeometry x="-1030" y="40" width="120" height="60" as="geometry" />
        </mxCell>
        <mxCell id="hJ_lRGSjpZqS62ds-ANR-7" style="edgeStyle=orthogonalEdgeStyle;rounded=0;orthogonalLoop=1;jettySize=auto;html=1;exitX=0.5;exitY=1;exitDx=0;exitDy=0;entryX=0.5;entryY=0;entryDx=0;entryDy=0;" edge="1" parent="1" source="hJ_lRGSjpZqS62ds-ANR-3" target="hJ_lRGSjpZqS62ds-ANR-5">
          <mxGeometry relative="1" as="geometry" />
        </mxCell>
        <mxCell id="hJ_lRGSjpZqS62ds-ANR-3" value="take life" style="shape=parallelogram;perimeter=parallelogramPerimeter;whiteSpace=wrap;html=1;fixedSize=1;" vertex="1" parent="1">
          <mxGeometry x="-1030" y="150" width="120" height="60" as="geometry" />
        </mxCell>
        <mxCell id="hJ_lRGSjpZqS62ds-ANR-8" style="edgeStyle=orthogonalEdgeStyle;rounded=0;orthogonalLoop=1;jettySize=auto;html=1;" edge="1" parent="1" source="hJ_lRGSjpZqS62ds-ANR-5" target="hJ_lRGSjpZqS62ds-ANR-9">
          <mxGeometry relative="1" as="geometry">
            <mxPoint x="-1120" y="360" as="targetPoint" />
            <Array as="points">
              <mxPoint x="-1120" y="280" />
            </Array>
          </mxGeometry>
        </mxCell>
        <mxCell id="hJ_lRGSjpZqS62ds-ANR-19" value="false" style="edgeLabel;html=1;align=center;verticalAlign=middle;resizable=0;points=[];" connectable="0" vertex="1" parent="hJ_lRGSjpZqS62ds-ANR-8">
          <mxGeometry x="0.0473" y="-4" relative="1" as="geometry">
            <mxPoint as="offset" />
          </mxGeometry>
        </mxCell>
        <mxCell id="hJ_lRGSjpZqS62ds-ANR-16" style="edgeStyle=orthogonalEdgeStyle;rounded=0;orthogonalLoop=1;jettySize=auto;html=1;entryX=1;entryY=0.5;entryDx=0;entryDy=0;" edge="1" parent="1" source="hJ_lRGSjpZqS62ds-ANR-5" target="hJ_lRGSjpZqS62ds-ANR-26">
          <mxGeometry relative="1" as="geometry">
            <mxPoint x="-915.96" y="757.44" as="targetPoint" />
            <Array as="points">
              <mxPoint x="-970" y="551" />
              <mxPoint x="-915" y="551" />
              <mxPoint x="-915" y="870" />
            </Array>
          </mxGeometry>
        </mxCell>
        <mxCell id="hJ_lRGSjpZqS62ds-ANR-20" value="true" style="edgeLabel;html=1;align=center;verticalAlign=middle;resizable=0;points=[];" connectable="0" vertex="1" parent="hJ_lRGSjpZqS62ds-ANR-16">
          <mxGeometry x="-0.7644" relative="1" as="geometry">
            <mxPoint as="offset" />
          </mxGeometry>
        </mxCell>
        <mxCell id="hJ_lRGSjpZqS62ds-ANR-5" value="get dead" style="rhombus;whiteSpace=wrap;html=1;" vertex="1" parent="1">
          <mxGeometry x="-1035" y="265" width="130" height="80" as="geometry" />
        </mxCell>
        <mxCell id="hJ_lRGSjpZqS62ds-ANR-11" style="edgeStyle=orthogonalEdgeStyle;rounded=0;orthogonalLoop=1;jettySize=auto;html=1;entryX=0.5;entryY=0;entryDx=0;entryDy=0;" edge="1" parent="1" source="hJ_lRGSjpZqS62ds-ANR-9" target="hJ_lRGSjpZqS62ds-ANR-10">
          <mxGeometry relative="1" as="geometry" />
        </mxCell>
        <mxCell id="hJ_lRGSjpZqS62ds-ANR-9" value="get take damage" style="shape=parallelogram;perimeter=parallelogramPerimeter;whiteSpace=wrap;html=1;fixedSize=1;" vertex="1" parent="1">
          <mxGeometry x="-1155" y="345" width="120" height="60" as="geometry" />
        </mxCell>
        <mxCell id="hJ_lRGSjpZqS62ds-ANR-15" style="edgeStyle=orthogonalEdgeStyle;rounded=0;orthogonalLoop=1;jettySize=auto;html=1;entryX=0.5;entryY=0;entryDx=0;entryDy=0;" edge="1" parent="1" source="hJ_lRGSjpZqS62ds-ANR-10" target="hJ_lRGSjpZqS62ds-ANR-14">
          <mxGeometry relative="1" as="geometry" />
        </mxCell>
        <mxCell id="hJ_lRGSjpZqS62ds-ANR-10" value="life = life&lt;div&gt;damage&lt;/div&gt;" style="rounded=0;whiteSpace=wrap;html=1;" vertex="1" parent="1">
          <mxGeometry x="-1155" y="490" width="120" height="60" as="geometry" />
        </mxCell>
        <mxCell id="hJ_lRGSjpZqS62ds-ANR-24" style="edgeStyle=orthogonalEdgeStyle;rounded=0;orthogonalLoop=1;jettySize=auto;html=1;entryX=0.5;entryY=0;entryDx=0;entryDy=0;" edge="1" parent="1" source="hJ_lRGSjpZqS62ds-ANR-14" target="hJ_lRGSjpZqS62ds-ANR-23">
          <mxGeometry relative="1" as="geometry" />
        </mxCell>
        <mxCell id="hJ_lRGSjpZqS62ds-ANR-14" value="life 1 = 1 damage" style="shape=document;whiteSpace=wrap;html=1;boundedLbl=1;" vertex="1" parent="1">
          <mxGeometry x="-1155" y="585" width="120" height="80" as="geometry" />
        </mxCell>
        <mxCell id="hJ_lRGSjpZqS62ds-ANR-23" value="get dead" style="shape=parallelogram;perimeter=parallelogramPerimeter;whiteSpace=wrap;html=1;fixedSize=1;" vertex="1" parent="1">
          <mxGeometry x="-1160" y="720" width="120" height="60" as="geometry" />
        </mxCell>
        <mxCell id="hJ_lRGSjpZqS62ds-ANR-26" value="end" style="ellipse;whiteSpace=wrap;html=1;" vertex="1" parent="1">
          <mxGeometry x="-1040" y="830" width="120" height="80" as="geometry" />
        </mxCell>
        <mxCell id="hJ_lRGSjpZqS62ds-ANR-27" style="edgeStyle=orthogonalEdgeStyle;rounded=0;orthogonalLoop=1;jettySize=auto;html=1;entryX=0;entryY=0.625;entryDx=0;entryDy=0;entryPerimeter=0;" edge="1" parent="1" source="hJ_lRGSjpZqS62ds-ANR-23" target="hJ_lRGSjpZqS62ds-ANR-26">
          <mxGeometry relative="1" as="geometry" />
        </mxCell>
      </root>
    </mxGraphModel>
  </diagram>
</mxfile>
